PathFileType	3	(X/Y/Z)	D:\minhoCalibration\240510\subject1_KPNP\preferred\preferred01.trc
DataRate	CameraRate	NumFrames	NumMarkers	Units	OrigDataRate	OrigDataStartFrame	OrigNumFrames
200.0	200.0	30	10	mm	200.0	508	227	
Frame#	Time	Left_Ankle_Outer1			Left_Ankle_Inner1			Left_Knee_Outer1			Left_Knee_Inner1			Left_Wrist1			Right_Wrist1			Right_Knee_Inner1			Right_Knee_Outer1			Right_Ankle_Inner1			Right_Ankle_Outer1			
		X1	Y1	Z1	X2	Y2	Z2	X3	Y3	Z3	X4	Y4	Z4	X5	Y5	Z5	X6	Y6	Z6	X7	Y7	Z7	X8	Y8	Z8	X9	Y9	Z9	X10	Y10	Z10	
508	2.53	-510.39825	99.511986	-559.31708	-558.91028	108.84009	-528.185	-391.2114	521.54578	-408.65082	-501.70316	501.28375	-403.79013	-355.77771	991.09167	-496.07556	-699.89447	1013.6617	-577.36346	-655.33038	560.92792	-406.58157	-759.65936	579.28027	-451.25174	-727.93005	132.50278	-442.55948	-817.75128	128.24387	-469.02783
509	2.535	-510.8143	99.179367	-559.69214	-559.25732	108.51405	-528.48303	-392.79944	522.38495	-411.69177	-503.15421	501.91605	-407.34854	-356.96289	991.94122	-496.26999	-699.96924	1015.3149	-581.90472	-656.97095	563.48956	-408.56464	-760.84399	581.58484	-455.47574	-728.19403	133.49133	-449.56927	-816.89191	129.57996	-478.69104
510	2.54	-511.20551	98.774284	-560.09637	-559.67078	108.13057	-529.0611	-394.63126	523.24078	-414.55286	-504.41022	502.3147	-411.60538	-357.94659	992.3009	-496.74786	-699.90948	1017.0083	-586.27625	-658.86664	565.87433	-410.52814	-762.151	583.74402	-459.78781	-727.73291	134.8869	-457.10596	-815.69971	131.08899	-488.68231
511	2.545	-511.58649	98.458176	-560.43817	-560.08289	107.79337	-529.48376	-396.35315	523.93311	-417.4718	-505.47089	502.68222	-416.31665	-358.57834	992.85193	-497.64713	-699.86774	1018.7135	-590.26721	-661.03229	567.82214	-412.58838	-763.42841	585.65393	-464.17865	-726.78235	136.56696	-465.23178	-814.45514	132.43367	-498.93073
512	2.55	-512.0564	98.118301	-560.87054	-560.37762	107.49113	-529.76215	-397.96219	524.61627	-420.3779	-507.19006	503.76349	-419.58289	-359.97464	992.98883	-497.91162	-699.72015	1020.2432	-594.05951	-663.53345	569.46948	-414.73138	-764.76672	587.4743	-468.40787	-726.13739	138.04233	-473.31509	-812.81616	134.05719	-509.56976
513	2.555	-512.43488	97.753288	-561.24341	-560.77777	107.17942	-530.2121	-399.75146	525.23279	-423.21603	-509.93152	505.25214	-420.91263	-360.9845	993.18866	-498.63623	-699.61005	1021.7427	-597.53265	-666.13306	570.82825	-416.98663	-766.01941	589.14233	-472.5957	-725.4494	139.31622	-481.8844	-810.99054	135.64954	-520.33502
514	2.56	-512.83063	97.352341	-561.62189	-561.02924	106.83434	-530.58173	-401.39767	525.78137	-426.00296	-511.52533	505.07654	-425.79929	-361.92719	993.36658	-499.46091	-699.55145	1023.1147	-600.83923	-668.90015	571.94208	-419.31363	-767.26263	590.77393	-476.52567	-724.45435	140.81598	-490.56525	-809.11371	137.25023	-531.40833
515	2.565	-513.19727	96.917236	-561.99841	-561.27631	106.41553	-530.8902	-403.1163	526.31519	-428.70395	-512.2843	505.43927	-430.79825	-362.94363	993.50482	-500.2995	-699.50995	1024.2909	-603.9884	-671.66119	572.88977	-421.74341	-768.42261	592.38916	-480.41525	-723.2536	142.33484	-499.73386	-806.98248	139.05534	-542.84363
516	2.57	-513.4364	96.560814	-562.48889	-561.54071	106.0631	-531.29877	-404.75397	526.75732	-431.33472	-514.89117	505.99857	-433.1676	-363.94312	993.63782	-501.1543	-699.42761	1025.1793	-606.92084	-674.28979	573.65735	-424.33881	-769.59753	593.84204	-484.12106	-721.97992	143.75885	-509.15097	-804.82935	140.77245	-554.19965
517	2.575	-513.6922	96.138557	-562.82379	-561.70667	105.7455	-531.71857	-406.38571	527.17596	-433.88739	-516.87714	507.44141	-435.13446	-364.90952	993.75598	-502.04349	-699.53552	1026.1825	-609.82208	-676.75385	574.29694	-427.0759	-770.8031	595.11035	-487.707	-720.54089	145.31895	-518.97607	-802.58716	142.85608	-566.14313
518	2.58	-513.8374	95.768715	-563.15179	-561.82794	105.40503	-532.0282	-407.90036	527.51416	-436.39291	-518.41705	507.7851	-438.60254	-365.9054	993.92419	-502.89117	-699.44586	1026.7627	-612.51202	-678.96497	574.89038	-429.95981	-772.01965	596.20892	-491.14859	-719.01544	146.95084	-529.07971	-800.3266	144.63094	-577.74841
519	2.585	-514.22949	95.109962	-563.15369	-562.05774	104.97775	-532.62805	-409.44226	527.82245	-438.82889	-518.65729	506.93561	-444.68106	-366.9068	994.08771	-503.68988	-699.25751	1027.3871	-615.30847	-681.01581	575.3526	-433.01694	-773.30078	597.20026	-494.71927	-717.69788	148.43843	-539.48016	-797.93298	147.02689	-590.12799
520	2.59	-514.39557	94.721916	-563.46954	-562.24127	104.7384	-532.97998	-410.935	528.10828	-441.17926	-520.64075	507.39413	-446.9498	-367.83182	994.33545	-504.49432	-699.17438	1027.9452	-618.07446	-682.9502	575.77417	-436.33215	-774.80682	597.95026	-498.2886	-715.96143	150.44113	-550.28406	-795.49725	149.33432	-602.20764
521	2.595	-514.54181	94.357086	-563.8136	-562.31616	104.37223	-533.29529	-412.29184	528.39282	-443.4614	-521.48529	507.33746	-450.75943	-368.81769	994.59302	-505.16504	-699.15802	1028.3851	-620.86389	-684.90692	576.10559	-439.68597	-776.1463	598.68787	-501.71835	-714.3183	152.17284	-561.09943	-793.1145	151.68282	-614.35626
522	2.6	-514.65857	94.027481	-564.14404	-562.32404	104.08466	-533.52954	-413.60526	528.63257	-445.66922	-522.51917	507.42953	-454.04276	-369.83002	994.84137	-505.90945	-699.13373	1028.6628	-623.71625	-686.89246	576.33124	-443.1908	-777.42163	599.28888	-505.16837	-712.55963	153.95624	-572.36938	-790.7052	154.26152	-626.71509
523	2.605	-514.74567	93.73777	-564.49792	-562.49896	103.74046	-534.05939	-414.75323	528.83325	-447.78787	-523.62634	507.52097	-456.97324	-370.80548	995.14362	-506.56439	-699.17297	1028.9056	-626.60236	-688.90948	576.35803	-446.70972	-778.68384	599.73206	-508.67899	-710.63342	155.91312	-583.83337	-788.06268	156.90616	-639.065
524	2.61	-514.76251	93.450287	-565.10315	-562.60693	103.47136	-534.37115	-415.93069	528.99139	-449.79749	-524.57178	507.57431	-459.63828	-371.85764	995.41663	-507.21866	-699.23535	1029.0968	-629.46747	-690.61951	576.11053	-450.55902	-780.02142	600.06592	-512.24432	-708.68097	157.9433	-595.42975	-785.75244	159.66434	-651.38031
525	2.615	-514.85876	93.206085	-565.3208	-562.36493	103.18571	-533.86615	-416.95093	529.14471	-451.68951	-525.55029	507.58975	-462.12518	-372.90402	995.68201	-507.83182	-699.36151	1029.196	-632.37061	-692.62927	575.74628	-453.97681	-781.32404	600.13983	-515.97522	-706.55334	160.03654	-607.2348	-783.10974	162.53189	-663.78076
526	2.62	-514.94543	92.933693	-565.48352	-562.28076	102.70444	-534.09808	-417.87473	529.2926	-453.51929	-526.27051	507.77893	-464.34479	-374.06378	995.95905	-508.42596	-699.50647	1029.2162	-635.32684	-694.60382	575.17676	-457.3783	-782.77362	600.16376	-519.89435	-704.40546	162.20569	-619.07306	-780.62689	165.53342	-676.07904
527	2.625	-515.05353	92.76004	-565.66693	-562.52637	102.80135	-534.41852	-418.69547	529.42877	-455.21967	-527.4906	507.77548	-465.76266	-375.28055	996.21234	-509.08185	-699.72546	1029.2401	-638.24072	-696.37311	574.3277	-460.98694	-784.1579	600.00159	-524.02246	-702.37701	164.2337	-630.63763	-778.10583	168.42262	-688.43634
528	2.63	-515.02606	92.654228	-565.86938	-562.62396	102.66441	-534.58459	-419.44446	529.64459	-456.85132	-528.06281	508.01874	-467.44531	-376.74863	996.39203	-509.62747	-699.99414	1029.2179	-641.13123	-698.11877	573.40137	-464.64182	-785.56689	599.67346	-528.45349	-699.87561	166.58495	-642.97107	-775.49847	171.42633	-700.65021
529	2.635	-515.13501	92.495491	-566.01215	-562.61804	102.59225	-534.71368	-420.0722	529.85193	-458.3494	-528.61328	508.1582	-469.0672	-377.9418	996.62939	-510.25778	-700.2796	1029.2253	-643.98389	-699.76831	572.34082	-468.461	-786.88361	599.26007	-533.0755	-697.39709	168.97585	-654.81903	-772.88263	174.51001	-712.85443
530	2.64	-515.14197	92.373558	-566.19189	-562.62903	102.46391	-534.9566	-420.69601	530.01562	-459.7652	-529.06458	508.31979	-470.40445	-378.93896	996.79547	-510.90039	-700.49554	1029.0723	-646.76025	-701.37598	571.1535	-472.54346	-788.14288	598.7655	-537.73889	-694.70703	171.35037	-666.77258	-770.19391	177.651	-725.15259
531	2.645	-515.04785	92.346512	-566.3382	-562.62408	102.43178	-535.01471	-421.16687	530.17529	-460.99695	-529.6579	508.97955	-470.66531	-379.97113	996.87238	-511.42944	-700.7807	1028.9948	-649.59143	-702.98175	569.96283	-476.70483	-789.33203	598.07068	-542.71173	-692.08063	173.65511	-678.55579	-767.23816	180.32742	-737.01526
532	2.65	-514.93982	92.21624	-566.49994	-562.125	102.31971	-535.65118	-421.54703	530.36127	-462.14978	-529.70508	508.55161	-472.73093	-381.27594	996.95386	-512.10492	-701.01868	1028.8573	-652.26508	-704.61908	568.68011	-481.16058	-790.51819	597.37994	-547.78772	-689.3501	175.99985	-690.17615	-764.2323	183.33038	-748.92755
533	2.655	-514.83777	92.087029	-566.63171	-562.26147	102.22204	-535.53119	-421.93488	530.53326	-463.12122	-529.89087	508.51233	-473.76315	-382.31119	996.98584	-512.52631	-701.19165	1028.6084	-655.04333	-706.20331	567.47211	-485.85388	-791.64008	596.4624	-553.02087	-686.50787	178.18694	-701.71796	-761.24762	186.24452	-760.71155
534	2.66	-514.6781	91.956932	-566.70667	-562.18463	101.98444	-535.98541	-422.26797	530.65717	-463.98315	-530.12842	508.64554	-474.43887	-383.51785	997.0097	-513.11365	-701.33398	1028.6001	-657.7868	-707.80774	566.31342	-490.70374	-792.63165	595.55078	-558.45038	-683.36407	180.47983	-713.02496	-757.92877	189.0038	-772.35077
535	2.665	-514.4967	91.903595	-566.80957	-562.00787	101.94941	-536.16425	-422.48788	530.86084	-464.73532	-530.30438	508.65222	-475.21991	-384.76477	996.99982	-513.89606	-701.66742	1028.0684	-660.43329	-709.32623	565.16956	-495.79144	-793.56329	594.53381	-564.08502	-680.28741	182.66907	-724.09827	-754.44958	191.58092	-783.6897
536	2.67	-514.27905	91.786369	-566.87793	-561.82751	101.85573	-536.34735	-422.75507	531.02338	-465.33841	-530.46667	508.73129	-475.75644	-385.87906	996.9588	-514.49341	-701.85516	1027.8291	-663.07355	-710.74872	563.93811	-501.06223	-794.45264	593.50238	-569.91943	-676.91431	184.76122	-734.97284	-750.81177	194.12216	-794.8905
537	2.675	-514.30127	91.494499	-566.52295	-561.5387	101.96097	-535.69568	-422.99203	531.20264	-465.83047	-530.65619	508.72964	-476.29623	-386.88263	996.82959	-514.95483	-702.12469	1027.4487	-665.62628	-712.11908	562.69141	-506.46646	-795.30646	592.33984	-576.08698	-673.36035	186.81363	-745.73901	-747.0376	196.44373	-805.99139
